# xmcd
#
# Track frame offsets:
#	150
#	13120
#	30357
#	42757
#	53320
#	65522
#	79127
#	96980
#	111050
#	123585
#	134517
#	151740
#	166442
#	176652
#
# Disc length: 2574 seconds
#
# Revision: 1
# Processed by: cddbd v1.4PL0 Copyright (c) Steve Scherf et al.
# Submitted via: audiograbber 1.80
#
DISCID=ad0a0c0e
DTITLE=Foreign Affairs - 1st Affair
DYEAR=1900
DGENRE=
TTITLE0=Mountain Line
TTITLE1=Modern Man
TTITLE2=Wild Life
TTITLE3=I'm Rollin' Through This Unfriendly World
TTITLE4=Let's Build Our Castle Today
TTITLE5=No Solution
TTITLE6=Long Island Lullaby
TTITLE7=Why Not Me
TTITLE8=Shut De Do
TTITLE9=One Of These Days My Luck's Gonna Change
TTITLE10=Waltz With Me
TTITLE11=Livin' In Secret Affection
TTITLE12=29 Ways
TTITLE13=Cold Cold Day
EXTD=
EXTT0=
EXTT1=
EXTT2=
EXTT3=
EXTT4=
EXTT5=
EXTT6=
EXTT7=
EXTT8=
EXTT9=
EXTT10=
EXTT11=
EXTT12=
EXTT13=
PLAYORDER=
